<svg id="interface" xmlns="http://www.w3.org/2000/svg" width="35.701" height="26.776" viewBox="0 0 35.701 26.776">
  <g id="Group_2204" data-name="Group 2204">
    <path id="Path_2359" data-name="Path 2359" d="M32.726,64H2.975A2.978,2.978,0,0,0,0,66.975V87.8a2.978,2.978,0,0,0,2.975,2.975H32.726A2.978,2.978,0,0,0,35.7,87.8V66.975A2.978,2.978,0,0,0,32.726,64ZM2.975,65.488H32.726a1.415,1.415,0,0,1,.309.063C30.459,67.907,21.919,75.721,18.93,78.413a1.492,1.492,0,0,1-2.159,0C13.782,75.72,5.241,67.907,2.666,65.55A1.422,1.422,0,0,1,2.975,65.488ZM1.488,87.8V66.975a1.437,1.437,0,0,1,.083-.411c1.971,1.8,7.931,7.256,11.795,10.77-3.852,3.308-9.812,8.96-11.8,10.855A1.433,1.433,0,0,1,1.488,87.8Zm31.238,1.488H2.975a1.423,1.423,0,0,1-.335-.068c2.053-1.957,8.052-7.641,11.836-10.878.493.447.944.855,1.3,1.175a2.971,2.971,0,0,0,4.151,0c.355-.32.806-.729,1.3-1.176,3.784,3.237,9.782,8.92,11.836,10.878A1.422,1.422,0,0,1,32.726,89.288ZM34.213,87.8a1.436,1.436,0,0,1-.079.388c-1.988-1.9-7.948-7.546-11.8-10.854,3.864-3.514,9.823-8.965,11.795-10.77a1.437,1.437,0,0,1,.083.411Z" transform="translate(0 -64)"/>
  </g>
</svg>
