<svg xmlns="http://www.w3.org/2000/svg" width="26.143" height="26.143" viewBox="0 0 26.143 26.143">
  <path id="earth-grid" d="M13.072,0A13.072,13.072,0,1,0,26.143,13.072,13.072,13.072,0,0,0,13.072,0ZM24.377,17.651l-3.717.641a19.507,19.507,0,0,0,.684-4.785h3.918a12.119,12.119,0,0,1-.884,4.144ZM.882,13.507H4.8a19.507,19.507,0,0,0,.684,4.785l-3.717-.641a12.119,12.119,0,0,1-.884-4.144Zm.884-5.015,3.717-.641A19.507,19.507,0,0,0,4.8,12.636H.882a12.119,12.119,0,0,1,.884-4.144ZM13.507,7a29.975,29.975,0,0,1,4.671.427l1.538.265a18.7,18.7,0,0,1,.756,4.948H13.507Zm4.82-.432a30.885,30.885,0,0,0-4.82-.439V.9c2.5.24,4.668,2.527,5.9,5.856Zm-5.691-.439a30.88,30.88,0,0,0-4.819.439L6.738,6.75c1.23-3.329,3.4-5.617,5.9-5.856Zm-4.671,1.3A29.967,29.967,0,0,1,12.636,7v5.64H5.671a18.7,18.7,0,0,1,.756-4.948ZM5.671,13.507h6.965v5.64a29.975,29.975,0,0,1-4.671-.427l-1.538-.265a18.7,18.7,0,0,1-.756-4.948ZM7.816,19.58a30.989,30.989,0,0,0,4.82.441V25.25c-2.5-.24-4.668-2.527-5.9-5.856Zm5.691.441a30.986,30.986,0,0,0,4.819-.441l1.078-.187c-1.23,3.329-3.4,5.617-5.9,5.856Zm4.671-1.3a29.967,29.967,0,0,1-4.671.427v-5.64h6.965a18.7,18.7,0,0,1-.756,4.948Zm3.165-6.085a19.507,19.507,0,0,0-.684-4.785l3.717.641a12.119,12.119,0,0,1,.884,4.144Zm2.593-5.1-3.563-.615a12.015,12.015,0,0,0-3.467-5.425,12.258,12.258,0,0,1,7.03,6.04Zm-14.7-6.04A12.015,12.015,0,0,0,5.771,6.917l-3.563.615a12.258,12.258,0,0,1,7.03-6.04ZM2.207,18.611l3.563.615a12.015,12.015,0,0,0,3.467,5.425,12.258,12.258,0,0,1-7.03-6.04Zm14.7,6.04a12.015,12.015,0,0,0,3.467-5.425l3.563-.615a12.258,12.258,0,0,1-7.03,6.04Zm0,0" fill="#0070b2"/>
</svg>
